<?xml version="1.0" standalone="no"?>
<!DOCTYPE svg PUBLIC "-//W3C//DTD SVG 20010904//EN"
 "http://www.w3.org/TR/2001/REC-SVG-20010904/DTD/svg10.dtd">
<svg version="1.0" xmlns="http://www.w3.org/2000/svg"
 width="512.000000pt" height="512.000000pt" viewBox="0 0 512.000000 512.000000"
 preserveAspectRatio="xMidYMid meet">

<g transform="translate(0.000000,512.000000) scale(0.100000,-0.100000)"
fill="#000000" stroke="none">
<path d="M1102 5099 c-27 -14 -51 -36 -67 -64 l-25 -42 0 -326 0 -327 -27 0
c-43 0 -105 -41 -130 -85 -18 -33 -23 -56 -23 -123 0 -93 12 -125 62 -167 31
-26 33 -31 33 -101 1 -60 -2 -74 -14 -74 -27 0 -116 -57 -150 -96 -69 -78 -75
-103 -79 -362 -3 -164 0 -242 8 -262 20 -49 93 -59 127 -18 8 9 13 92 15 248
3 260 7 276 70 322 l33 23 1095 3 1095 2 233 -630 233 -631 -33 -67 c-32 -64
-33 -71 -32 -182 l0 -115 68 -185 c37 -101 74 -192 83 -202 21 -23 75 -23 104
0 32 27 29 60 -19 190 -23 63 -42 117 -42 122 0 7 191 82 196 77 1 -1 131
-357 289 -791 316 -870 305 -827 236 -873 -58 -39 -128 -25 -155 31 -8 17 -91
242 -185 501 -97 266 -178 475 -188 482 -44 33 -123 -3 -123 -55 0 -11 20 -76
45 -143 25 -67 45 -126 45 -131 0 -4 -686 -8 -1525 -8 l-1525 0 0 855 c0 842
0 855 -20 875 -28 28 -75 26 -105 -5 l-25 -24 0 -860 0 -860 -29 -15 c-42 -22
-106 -99 -119 -144 -15 -50 -15 -124 0 -174 13 -45 77 -122 119 -144 29 -14
29 -15 29 -109 l0 -95 -149 0 c-137 0 -150 2 -176 22 -58 45 -55 -31 -55 1462
l0 1375 28 15 c43 22 90 75 107 120 14 36 15 111 13 567 l-3 525 -28 42 c-59
89 -172 126 -272 87 -62 -23 -121 -92 -135 -158 -8 -36 -10 -207 -8 -547 3
-489 3 -495 25 -537 23 -42 88 -103 110 -103 10 0 13 -286 15 -1407 l3 -1408
21 -45 c28 -59 77 -108 139 -136 46 -22 63 -24 216 -24 l166 0 18 -41 c26 -57
97 -116 162 -135 42 -12 92 -15 231 -12 l177 3 130 70 130 70 793 3 c507 1
806 -1 830 -8 20 -5 90 -39 155 -76 l119 -65 196 3 c181 3 200 5 238 25 58 31
103 79 130 138 22 46 24 63 24 208 0 135 2 158 16 164 20 8 26 -2 65 -112 38
-107 68 -155 117 -189 48 -33 85 -46 128 -46 30 0 43 -9 89 -58 90 -97 198
-140 324 -128 116 10 236 87 296 191 56 95 55 72 55 1185 0 643 -4 1049 -10
1090 -21 132 -110 268 -224 342 -117 75 -148 80 -523 86 l-333 4 0 323 c0 352
-2 370 -59 447 -35 48 -96 94 -147 111 l-38 14 -2 70 c-2 68 0 72 28 93 53 39
68 76 68 168 0 104 -21 150 -83 187 l-44 25 -361 0 -361 0 -21 58 c-12 31 -39
105 -61 164 l-39 107 25 36 c46 69 47 168 0 234 -53 78 -135 159 -171 171 -48
16 -98 5 -139 -31 -47 -42 -58 -82 -53 -202 3 -80 9 -111 26 -144 26 -50 72
-87 129 -103 l42 -13 45 -121 c24 -67 48 -129 51 -138 6 -16 -1 -18 -78 -18
-96 0 -129 -9 -171 -48 -41 -39 -56 -82 -56 -160 0 -82 28 -147 77 -177 18
-11 30 -26 28 -33 -3 -8 -5 -38 -5 -68 l0 -54 -195 0 -195 0 0 348 c0 289 -3
358 -16 403 -32 109 -113 203 -223 256 -52 26 -67 28 -198 31 l-143 4 0 66 c0
83 -24 139 -76 178 l-37 29 -216 3 c-204 2 -218 1 -259 -19z m873 -433 c56
-26 98 -70 126 -131 17 -36 19 -73 19 -387 l0 -348 -175 0 -175 0 0 48 c0 26
-2 56 -5 67 -4 15 4 25 28 40 49 30 77 95 77 177 0 38 -6 83 -14 101 -19 47
-79 96 -126 103 l-40 7 0 173 0 174 118 0 c102 0 124 -3 167 -24z m-1695 -266
c19 -19 20 -33 20 -518 0 -463 -1 -500 -17 -514 -48 -42 -118 -23 -128 35 -3
17 -5 244 -3 503 3 448 4 473 22 493 25 27 79 28 106 1z m1434 -226 c8 -22 7
-82 -1 -87 -13 -8 -688 -20 -711 -13 -19 6 -22 15 -22 55 0 26 3 51 7 54 3 4
167 7 364 7 316 0 358 -2 363 -16z m1229 -33 c9 -27 17 -54 17 -60 0 -16 -222
-15 -238 1 -13 13 -17 90 -5 101 3 4 52 7 107 7 l101 0 18 -49z m785 -8 l3
-53 -89 0 c-49 0 -183 -3 -299 -7 l-210 -6 -15 44 c-9 24 -19 52 -23 62 -7 16
10 17 311 15 l319 -3 3 -52z m-2126 -230 c24 -21 23 -58 -2 -83 -19 -19 -33
-20 -245 -20 -150 0 -233 4 -250 12 -33 15 -42 51 -21 83 l16 25 242 0 c211 0
244 -2 260 -17z m1446 -43 l21 -60 -107 0 c-123 0 -152 12 -152 60 0 50 21 60
125 60 l93 0 20 -60z m564 48 c30 -24 31 -56 4 -83 -25 -25 -26 -25 -205 -25
l-180 0 -20 55 c-12 31 -21 58 -21 60 0 3 91 5 203 5 147 0 208 -3 219 -12z
m194 -284 c15 -11 37 -33 48 -48 21 -27 21 -39 24 -618 l2 -592 -20 19 c-11
10 -44 26 -72 36 l-53 18 -222 598 c-122 329 -222 602 -222 606 -1 4 109 7
243 5 229 -3 246 -4 272 -24z m919 -898 c71 -25 139 -77 180 -139 68 -103 66
-58 63 -1218 l-3 -1044 -22 -41 c-44 -82 -130 -134 -219 -134 -45 0 -130 37
-158 68 -18 21 -18 22 6 54 48 63 62 100 62 168 0 60 -18 115 -236 710 -176
481 -232 646 -221 648 7 2 30 -5 51 -16 34 -17 52 -48 238 -406 111 -212 209
-395 219 -406 10 -11 31 -20 47 -20 34 0 78 39 78 70 0 25 -391 780 -429 829
-44 56 -121 93 -205 99 l-72 4 -37 107 -37 106 0 286 c0 157 3 289 8 293 4 4
149 6 322 4 267 -4 323 -7 365 -22z m-747 -1937 c25 -70 30 -95 21 -105 -10
-12 -277 -14 -1641 -14 l-1630 0 -29 29 c-24 24 -29 38 -29 76 0 38 5 52 29
76 l29 29 1609 0 1608 0 33 -91z"/>
<path d="M1915 3426 c-152 -66 -190 -259 -72 -375 69 -69 86 -71 516 -71 221
0 391 4 412 10 52 15 99 49 134 99 27 39 30 50 30 120 0 69 -3 83 -30 126 -22
36 -45 57 -84 77 l-53 28 -412 0 c-316 -1 -418 -4 -441 -14z m852 -158 c44
-41 22 -118 -39 -133 -13 -3 -189 -5 -391 -3 l-369 3 -25 29 c-29 35 -26 80 8
109 19 15 54 17 407 17 382 0 386 0 409 -22z"/>
<path d="M2007 2650 l-27 -21 0 -619 0 -619 22 -21 c30 -27 73 -26 103 5 l25
24 0 609 c0 566 -1 611 -17 631 -27 32 -73 37 -106 11z"/>
<path d="M2323 2660 c-12 -5 -26 -18 -32 -29 -8 -13 -11 -216 -11 -626 l0
-606 25 -24 c30 -31 73 -32 103 -5 l22 21 0 619 0 619 -26 20 c-29 23 -46 25
-81 11z"/>
<path d="M2617 2650 l-27 -21 0 -619 0 -619 22 -21 c30 -27 73 -26 103 5 l25
24 0 609 c0 566 -1 611 -17 631 -27 32 -73 37 -106 11z"/>
</g>
</svg>
